<mxfile host="app.diagrams.net" modified="2021-01-28T08:08:50.357Z" agent="5.0 (Windows NT 10.0; Win64; x64) AppleWebKit/537.36 (KHTML, like Gecko) Chrome/88.0.4324.104 Safari/537.36" etag="KOMeNeszJPthoFDP0Cl9" version="14.2.7" type="github">
  <diagram id="ii8b_2TOQS5c5ZvqDjwI" name="Page-1">
    <mxGraphModel dx="1422" dy="737" grid="1" gridSize="10" guides="1" tooltips="1" connect="1" arrows="1" fold="1" page="1" pageScale="1" pageWidth="1169" pageHeight="1654" math="0" shadow="0">
      <root>
        <mxCell id="0" />
        <mxCell id="1" parent="0" />
        <mxCell id="zUzUT3k_cKeQ_L0sz_wW-7" value="&lt;div style=&quot;box-sizing: border-box ; width: 100% ; background: #e4e4e4 ; padding: 2px&quot;&gt;USER&lt;/div&gt;&lt;table style=&quot;width: 100% ; font-size: 1em&quot; cellpadding=&quot;2&quot; cellspacing=&quot;0&quot;&gt;&lt;tbody&gt;&lt;tr&gt;&lt;td&gt;PK&lt;/td&gt;&lt;td&gt;user_id&lt;/td&gt;&lt;/tr&gt;&lt;tr&gt;&lt;td&gt;&lt;br&gt;&lt;/td&gt;&lt;td&gt;login_id&lt;/td&gt;&lt;/tr&gt;&lt;tr&gt;&lt;td&gt;&lt;/td&gt;&lt;td&gt;name&lt;br&gt;pwd&lt;br&gt;email&lt;br&gt;phone&lt;br&gt;hired_dt&lt;br&gt;modify_dt&lt;br&gt;pwd_dt&lt;br&gt;is_admin&lt;/td&gt;&lt;/tr&gt;&lt;/tbody&gt;&lt;/table&gt;" style="verticalAlign=top;align=left;overflow=fill;html=1;" parent="1" vertex="1">
          <mxGeometry x="270" y="180" width="180" height="180" as="geometry" />
        </mxCell>
        <mxCell id="zUzUT3k_cKeQ_L0sz_wW-8" value="&lt;div style=&quot;box-sizing: border-box ; width: 100% ; background: #e4e4e4 ; padding: 2px&quot;&gt;ADDRESS&lt;/div&gt;&lt;table style=&quot;width: 100% ; font-size: 1em&quot; cellpadding=&quot;2&quot; cellspacing=&quot;0&quot;&gt;&lt;tbody&gt;&lt;tr&gt;&lt;td&gt;PK&lt;/td&gt;&lt;td&gt;address_id&lt;/td&gt;&lt;/tr&gt;&lt;tr&gt;&lt;td&gt;FK&lt;/td&gt;&lt;td&gt;user_id&lt;/td&gt;&lt;/tr&gt;&lt;tr&gt;&lt;td&gt;&lt;/td&gt;&lt;td&gt;type&lt;br&gt;address1&lt;br&gt;address2&lt;/td&gt;&lt;/tr&gt;&lt;/tbody&gt;&lt;/table&gt;" style="verticalAlign=top;align=left;overflow=fill;html=1;" parent="1" vertex="1">
          <mxGeometry x="270" y="30" width="180" height="110" as="geometry" />
        </mxCell>
        <mxCell id="legLQhbJ98-BRNoT-hqe-1" value="&lt;div style=&quot;box-sizing: border-box ; width: 100% ; background: #e4e4e4 ; padding: 2px&quot;&gt;LOCK_USER&lt;/div&gt;&lt;table style=&quot;width: 100% ; font-size: 1em&quot; cellpadding=&quot;2&quot; cellspacing=&quot;0&quot;&gt;&lt;tbody&gt;&lt;tr&gt;&lt;td&gt;PK&lt;/td&gt;&lt;td&gt;lock_user_id&lt;/td&gt;&lt;/tr&gt;&lt;tr&gt;&lt;td&gt;FK1&lt;/td&gt;&lt;td&gt;user_id&lt;/td&gt;&lt;/tr&gt;&lt;tr&gt;&lt;td&gt;&lt;/td&gt;&lt;td&gt;locked_date&lt;/td&gt;&lt;/tr&gt;&lt;/tbody&gt;&lt;/table&gt;" style="verticalAlign=top;align=left;overflow=fill;html=1;" parent="1" vertex="1">
          <mxGeometry x="20" y="230" width="180" height="90" as="geometry" />
        </mxCell>
        <mxCell id="legLQhbJ98-BRNoT-hqe-2" value="" style="endArrow=ERoneToMany;endFill=0;endSize=12;html=1;exitX=0;exitY=0.5;exitDx=0;exitDy=0;" parent="1" source="zUzUT3k_cKeQ_L0sz_wW-7" target="legLQhbJ98-BRNoT-hqe-1" edge="1">
          <mxGeometry width="160" relative="1" as="geometry">
            <mxPoint x="270" y="281" as="sourcePoint" />
            <mxPoint x="200" y="297" as="targetPoint" />
          </mxGeometry>
        </mxCell>
        <mxCell id="legLQhbJ98-BRNoT-hqe-3" value="" style="endArrow=ERmany;endFill=0;endSize=12;html=1;exitX=0.5;exitY=0;exitDx=0;exitDy=0;entryX=0.5;entryY=1;entryDx=0;entryDy=0;" parent="1" source="zUzUT3k_cKeQ_L0sz_wW-7" target="zUzUT3k_cKeQ_L0sz_wW-8" edge="1">
          <mxGeometry width="160" relative="1" as="geometry">
            <mxPoint x="368.9200000000001" y="209.99999999999994" as="sourcePoint" />
            <mxPoint x="200" y="215.94" as="targetPoint" />
            <Array as="points">
              <mxPoint x="360" y="160" />
            </Array>
          </mxGeometry>
        </mxCell>
        <mxCell id="legLQhbJ98-BRNoT-hqe-4" value="&lt;div style=&quot;box-sizing: border-box ; width: 100% ; background: #e4e4e4 ; padding: 2px&quot;&gt;PWD_HISTORY&lt;/div&gt;&lt;table style=&quot;width: 100% ; font-size: 1em&quot; cellpadding=&quot;2&quot; cellspacing=&quot;0&quot;&gt;&lt;tbody&gt;&lt;tr&gt;&lt;td&gt;PK&lt;/td&gt;&lt;td&gt;pwd_history_id&lt;/td&gt;&lt;/tr&gt;&lt;tr&gt;&lt;td&gt;FK1&lt;/td&gt;&lt;td&gt;user_id&lt;/td&gt;&lt;/tr&gt;&lt;tr&gt;&lt;td&gt;&lt;/td&gt;&lt;td&gt;create_dt&lt;br&gt;pwd&lt;/td&gt;&lt;/tr&gt;&lt;/tbody&gt;&lt;/table&gt;" style="verticalAlign=top;align=left;overflow=fill;html=1;" parent="1" vertex="1">
          <mxGeometry x="20" y="370" width="180" height="90" as="geometry" />
        </mxCell>
        <mxCell id="legLQhbJ98-BRNoT-hqe-5" value="" style="endArrow=ERoneToMany;endFill=0;endSize=12;html=1;entryX=1;entryY=0.5;entryDx=0;entryDy=0;exitX=0.5;exitY=1;exitDx=0;exitDy=0;" parent="1" source="zUzUT3k_cKeQ_L0sz_wW-7" target="legLQhbJ98-BRNoT-hqe-4" edge="1">
          <mxGeometry width="160" relative="1" as="geometry">
            <mxPoint x="369" y="430" as="sourcePoint" />
            <mxPoint x="200" y="430" as="targetPoint" />
            <Array as="points">
              <mxPoint x="360" y="415" />
            </Array>
          </mxGeometry>
        </mxCell>
        <mxCell id="legLQhbJ98-BRNoT-hqe-8" value="&lt;div style=&quot;box-sizing: border-box ; width: 100% ; background: #e4e4e4 ; padding: 2px&quot;&gt;PRODUCT&lt;/div&gt;&lt;table style=&quot;width: 100% ; font-size: 1em&quot; cellpadding=&quot;2&quot; cellspacing=&quot;0&quot;&gt;&lt;tbody&gt;&lt;tr&gt;&lt;td&gt;PK&lt;/td&gt;&lt;td&gt;product_id&lt;/td&gt;&lt;/tr&gt;&lt;tr&gt;&lt;td&gt;&lt;br&gt;&lt;/td&gt;&lt;td&gt;name&lt;/td&gt;&lt;/tr&gt;&lt;tr&gt;&lt;td&gt;&lt;/td&gt;&lt;td&gt;product_image&lt;br&gt;price&lt;br&gt;description&lt;br&gt;option1&lt;br&gt;option2&lt;/td&gt;&lt;/tr&gt;&lt;/tbody&gt;&lt;/table&gt;" style="verticalAlign=top;align=left;overflow=fill;html=1;" parent="1" vertex="1">
          <mxGeometry x="780" y="180" width="180" height="140" as="geometry" />
        </mxCell>
        <mxCell id="legLQhbJ98-BRNoT-hqe-10" value="" style="endArrow=ERoneToMany;endFill=0;endSize=12;html=1;exitX=0;exitY=0.5;exitDx=0;exitDy=0;entryX=1;entryY=0.5;entryDx=0;entryDy=0;" parent="1" source="legLQhbJ98-BRNoT-hqe-8" target="legLQhbJ98-BRNoT-hqe-13" edge="1">
          <mxGeometry width="160" relative="1" as="geometry">
            <mxPoint x="800" y="248.91" as="sourcePoint" />
            <mxPoint x="710" y="272.5" as="targetPoint" />
            <Array as="points">
              <mxPoint x="740" y="250" />
              <mxPoint x="740" y="170" />
              <mxPoint x="740" y="95" />
            </Array>
          </mxGeometry>
        </mxCell>
        <mxCell id="legLQhbJ98-BRNoT-hqe-11" value="" style="endArrow=ERoneToMany;endFill=0;endSize=12;html=1;exitX=1;exitY=0.5;exitDx=0;exitDy=0;entryX=0;entryY=0.75;entryDx=0;entryDy=0;" parent="1" source="zUzUT3k_cKeQ_L0sz_wW-7" target="legLQhbJ98-BRNoT-hqe-13" edge="1">
          <mxGeometry width="160" relative="1" as="geometry">
            <mxPoint x="540" y="300" as="sourcePoint" />
            <mxPoint x="530" y="272.5" as="targetPoint" />
            <Array as="points">
              <mxPoint x="480" y="270" />
              <mxPoint x="480" y="123" />
            </Array>
          </mxGeometry>
        </mxCell>
        <mxCell id="legLQhbJ98-BRNoT-hqe-13" value="&lt;div style=&quot;box-sizing: border-box ; width: 100% ; background: #e4e4e4 ; padding: 2px&quot;&gt;ORDER&lt;/div&gt;&lt;table style=&quot;width: 100% ; font-size: 1em&quot; cellpadding=&quot;2&quot; cellspacing=&quot;0&quot;&gt;&lt;tbody&gt;&lt;tr&gt;&lt;td&gt;PK&lt;/td&gt;&lt;td&gt;order_id&lt;/td&gt;&lt;/tr&gt;&lt;tr&gt;&lt;td&gt;FK1&lt;/td&gt;&lt;td&gt;user_id&lt;/td&gt;&lt;/tr&gt;&lt;tr&gt;&lt;td&gt;&lt;/td&gt;&lt;td&gt;product_id&lt;br&gt;address_id&lt;br&gt;total_price&lt;/td&gt;&lt;/tr&gt;&lt;/tbody&gt;&lt;/table&gt;" style="verticalAlign=top;align=left;overflow=fill;html=1;" parent="1" vertex="1">
          <mxGeometry x="530" y="40" width="180" height="110" as="geometry" />
        </mxCell>
        <mxCell id="legLQhbJ98-BRNoT-hqe-16" value="" style="endArrow=ERoneToMany;endFill=0;endSize=12;html=1;entryX=1;entryY=0.5;entryDx=0;entryDy=0;startArrow=ERoneToMany;startFill=0;startSize=12;exitX=-0.011;exitY=0.418;exitDx=0;exitDy=0;exitPerimeter=0;" parent="1" source="legLQhbJ98-BRNoT-hqe-13" target="zUzUT3k_cKeQ_L0sz_wW-8" edge="1">
          <mxGeometry width="160" relative="1" as="geometry">
            <mxPoint x="520" y="85" as="sourcePoint" />
            <mxPoint x="490" y="102.1875" as="targetPoint" />
            <Array as="points" />
          </mxGeometry>
        </mxCell>
        <mxCell id="legLQhbJ98-BRNoT-hqe-17" value="&lt;div style=&quot;box-sizing: border-box ; width: 100% ; background: #e4e4e4 ; padding: 2px&quot;&gt;CART&lt;/div&gt;&lt;table style=&quot;width: 100% ; font-size: 1em&quot; cellpadding=&quot;2&quot; cellspacing=&quot;0&quot;&gt;&lt;tbody&gt;&lt;tr&gt;&lt;td&gt;PK&lt;/td&gt;&lt;td&gt;cart_id&lt;/td&gt;&lt;/tr&gt;&lt;tr&gt;&lt;td&gt;FK1&lt;/td&gt;&lt;td&gt;user_id&lt;/td&gt;&lt;/tr&gt;&lt;tr&gt;&lt;td&gt;&lt;/td&gt;&lt;td&gt;product_id&lt;br&gt;total_price&lt;/td&gt;&lt;/tr&gt;&lt;/tbody&gt;&lt;/table&gt;" style="verticalAlign=top;align=left;overflow=fill;html=1;" parent="1" vertex="1">
          <mxGeometry x="530" y="170" width="180" height="90" as="geometry" />
        </mxCell>
        <mxCell id="legLQhbJ98-BRNoT-hqe-18" value="" style="endArrow=ERoneToMany;endFill=0;endSize=12;html=1;entryX=0;entryY=0.5;entryDx=0;entryDy=0;" parent="1" target="legLQhbJ98-BRNoT-hqe-17" edge="1">
          <mxGeometry width="160" relative="1" as="geometry">
            <mxPoint x="450" y="270" as="sourcePoint" />
            <mxPoint x="540" y="205" as="targetPoint" />
            <Array as="points">
              <mxPoint x="480" y="270" />
              <mxPoint x="480" y="215" />
            </Array>
          </mxGeometry>
        </mxCell>
        <mxCell id="legLQhbJ98-BRNoT-hqe-19" value="" style="endArrow=ERoneToMany;endFill=0;endSize=12;html=1;entryX=1;entryY=0.5;entryDx=0;entryDy=0;exitX=0;exitY=0.5;exitDx=0;exitDy=0;" parent="1" source="legLQhbJ98-BRNoT-hqe-8" target="legLQhbJ98-BRNoT-hqe-17" edge="1">
          <mxGeometry width="160" relative="1" as="geometry">
            <mxPoint x="790" y="260" as="sourcePoint" />
            <mxPoint x="720" y="205" as="targetPoint" />
            <Array as="points">
              <mxPoint x="740" y="250" />
              <mxPoint x="740" y="215" />
            </Array>
          </mxGeometry>
        </mxCell>
        <mxCell id="legLQhbJ98-BRNoT-hqe-20" value="&lt;div style=&quot;box-sizing: border-box ; width: 100% ; background: #e4e4e4 ; padding: 2px&quot;&gt;REVIEW&lt;/div&gt;&lt;table style=&quot;width: 100% ; font-size: 1em&quot; cellpadding=&quot;2&quot; cellspacing=&quot;0&quot;&gt;&lt;tbody&gt;&lt;tr&gt;&lt;td&gt;PK&lt;/td&gt;&lt;td&gt;review_id&lt;/td&gt;&lt;/tr&gt;&lt;tr&gt;&lt;td&gt;FK1&lt;/td&gt;&lt;td&gt;user_id&lt;/td&gt;&lt;/tr&gt;&lt;tr&gt;&lt;td&gt;&lt;/td&gt;&lt;td&gt;product_id&lt;br&gt;title&lt;br&gt;content&lt;br&gt;image1&lt;br&gt;image2&lt;br&gt;image3&lt;br&gt;image4&lt;br&gt;&lt;br&gt;&lt;/td&gt;&lt;/tr&gt;&lt;/tbody&gt;&lt;/table&gt;" style="verticalAlign=top;align=left;overflow=fill;html=1;" parent="1" vertex="1">
          <mxGeometry x="530" y="280" width="180" height="160" as="geometry" />
        </mxCell>
        <mxCell id="legLQhbJ98-BRNoT-hqe-21" value="" style="endArrow=ERoneToMany;endFill=0;endSize=12;html=1;entryX=1;entryY=0.5;entryDx=0;entryDy=0;exitX=0.5;exitY=1;exitDx=0;exitDy=0;" parent="1" source="legLQhbJ98-BRNoT-hqe-8" target="legLQhbJ98-BRNoT-hqe-20" edge="1">
          <mxGeometry width="160" relative="1" as="geometry">
            <mxPoint x="780" y="420" as="sourcePoint" />
            <mxPoint x="710" y="505" as="targetPoint" />
            <Array as="points">
              <mxPoint x="870" y="360" />
            </Array>
          </mxGeometry>
        </mxCell>
        <mxCell id="legLQhbJ98-BRNoT-hqe-22" value="" style="endArrow=ERoneToMany;endFill=0;endSize=12;html=1;entryX=0;entryY=0.75;entryDx=0;entryDy=0;" parent="1" target="legLQhbJ98-BRNoT-hqe-20" edge="1">
          <mxGeometry width="160" relative="1" as="geometry">
            <mxPoint x="360" y="360" as="sourcePoint" />
            <mxPoint x="270" y="485" as="targetPoint" />
            <Array as="points">
              <mxPoint x="360" y="400" />
            </Array>
          </mxGeometry>
        </mxCell>
        <mxCell id="legLQhbJ98-BRNoT-hqe-23" value="&lt;div style=&quot;box-sizing: border-box ; width: 100% ; background: #e4e4e4 ; padding: 2px&quot;&gt;USER_MEMBERSHIP&lt;/div&gt;&lt;table style=&quot;width: 100% ; font-size: 1em&quot; cellpadding=&quot;2&quot; cellspacing=&quot;0&quot;&gt;&lt;tbody&gt;&lt;tr&gt;&lt;td&gt;PK&lt;/td&gt;&lt;td&gt;user_membership_id&lt;/td&gt;&lt;/tr&gt;&lt;tr&gt;&lt;td&gt;FK1&lt;/td&gt;&lt;td&gt;user_id&lt;/td&gt;&lt;/tr&gt;&lt;tr&gt;&lt;td&gt;&lt;/td&gt;&lt;td&gt;grade&lt;br&gt;point&lt;/td&gt;&lt;/tr&gt;&lt;/tbody&gt;&lt;/table&gt;" style="verticalAlign=top;align=left;overflow=fill;html=1;" parent="1" vertex="1">
          <mxGeometry x="20" y="90" width="180" height="90" as="geometry" />
        </mxCell>
        <mxCell id="legLQhbJ98-BRNoT-hqe-24" value="" style="endArrow=ERoneToMany;endFill=0;endSize=12;html=1;exitX=0;exitY=0.5;exitDx=0;exitDy=0;entryX=0.5;entryY=1;entryDx=0;entryDy=0;" parent="1" source="zUzUT3k_cKeQ_L0sz_wW-7" target="legLQhbJ98-BRNoT-hqe-23" edge="1">
          <mxGeometry width="160" relative="1" as="geometry">
            <mxPoint x="180" y="193.91" as="sourcePoint" />
            <mxPoint x="110" y="196.0975" as="targetPoint" />
            <Array as="points">
              <mxPoint x="240" y="270" />
              <mxPoint x="240" y="210" />
              <mxPoint x="110" y="210" />
            </Array>
          </mxGeometry>
        </mxCell>
        <mxCell id="legLQhbJ98-BRNoT-hqe-25" value="&lt;div style=&quot;box-sizing: border-box ; width: 100% ; background: #e4e4e4 ; padding: 2px&quot;&gt;PRODUCT_QNA&lt;/div&gt;&lt;table style=&quot;width: 100% ; font-size: 1em&quot; cellpadding=&quot;2&quot; cellspacing=&quot;0&quot;&gt;&lt;tbody&gt;&lt;tr&gt;&lt;td&gt;PK&lt;/td&gt;&lt;td&gt;prodcut_qna_id&lt;/td&gt;&lt;/tr&gt;&lt;tr&gt;&lt;td&gt;FK1&lt;/td&gt;&lt;td&gt;user_id&lt;/td&gt;&lt;/tr&gt;&lt;tr&gt;&lt;td&gt;&lt;/td&gt;&lt;td&gt;product_id&lt;br&gt;product_answer_id&lt;br&gt;title&lt;br&gt;content&lt;br&gt;create_dt&lt;br&gt;update_dt&lt;/td&gt;&lt;/tr&gt;&lt;/tbody&gt;&lt;/table&gt;" style="verticalAlign=top;align=left;overflow=fill;html=1;" parent="1" vertex="1">
          <mxGeometry x="530" y="450" width="180" height="140" as="geometry" />
        </mxCell>
        <mxCell id="legLQhbJ98-BRNoT-hqe-26" value="&lt;div style=&quot;box-sizing: border-box ; width: 100% ; background: #e4e4e4 ; padding: 2px&quot;&gt;PRODUCT_ANSWER&lt;/div&gt;&lt;table style=&quot;width: 100% ; font-size: 1em&quot; cellpadding=&quot;2&quot; cellspacing=&quot;0&quot;&gt;&lt;tbody&gt;&lt;tr&gt;&lt;td&gt;PK&lt;/td&gt;&lt;td&gt;product_answer_id&lt;/td&gt;&lt;/tr&gt;&lt;tr&gt;&lt;td&gt;FK1&lt;/td&gt;&lt;td&gt;user_id&lt;br&gt;&lt;/td&gt;&lt;/tr&gt;&lt;tr&gt;&lt;td&gt;&lt;/td&gt;&lt;td&gt;product_id&lt;br&gt;product_qna_id&lt;br&gt;title_id&lt;br&gt;content&lt;br&gt;create_dt&lt;br&gt;update_dt&lt;/td&gt;&lt;/tr&gt;&lt;/tbody&gt;&lt;/table&gt;" style="verticalAlign=top;align=left;overflow=fill;html=1;" parent="1" vertex="1">
          <mxGeometry x="530" y="630" width="180" height="140" as="geometry" />
        </mxCell>
        <mxCell id="legLQhbJ98-BRNoT-hqe-27" value="" style="endArrow=ERoneToMany;endFill=0;endSize=12;html=1;entryX=1;entryY=0.5;entryDx=0;entryDy=0;exitX=0.5;exitY=1;exitDx=0;exitDy=0;" parent="1" source="legLQhbJ98-BRNoT-hqe-8" target="legLQhbJ98-BRNoT-hqe-25" edge="1">
          <mxGeometry width="160" relative="1" as="geometry">
            <mxPoint x="870" y="490" as="sourcePoint" />
            <mxPoint x="710" y="530" as="targetPoint" />
            <Array as="points">
              <mxPoint x="870" y="520" />
            </Array>
          </mxGeometry>
        </mxCell>
        <mxCell id="legLQhbJ98-BRNoT-hqe-28" value="" style="endArrow=ERoneToMany;endFill=0;endSize=12;html=1;entryX=1;entryY=0.5;entryDx=0;entryDy=0;exitX=0.5;exitY=1;exitDx=0;exitDy=0;" parent="1" source="legLQhbJ98-BRNoT-hqe-8" target="legLQhbJ98-BRNoT-hqe-26" edge="1">
          <mxGeometry width="160" relative="1" as="geometry">
            <mxPoint x="880" y="330" as="sourcePoint" />
            <mxPoint x="720" y="525" as="targetPoint" />
            <Array as="points">
              <mxPoint x="870" y="700" />
            </Array>
          </mxGeometry>
        </mxCell>
        <mxCell id="legLQhbJ98-BRNoT-hqe-29" value="" style="endArrow=ERoneToMany;endFill=0;endSize=12;html=1;entryX=0;entryY=0.5;entryDx=0;entryDy=0;exitX=0.5;exitY=1;exitDx=0;exitDy=0;" parent="1" source="zUzUT3k_cKeQ_L0sz_wW-7" target="legLQhbJ98-BRNoT-hqe-25" edge="1">
          <mxGeometry width="160" relative="1" as="geometry">
            <mxPoint x="350" y="480" as="sourcePoint" />
            <mxPoint x="520" y="520" as="targetPoint" />
            <Array as="points">
              <mxPoint x="360" y="520" />
            </Array>
          </mxGeometry>
        </mxCell>
        <mxCell id="legLQhbJ98-BRNoT-hqe-30" value="" style="endArrow=ERoneToMany;endFill=0;endSize=12;html=1;entryX=0;entryY=0.5;entryDx=0;entryDy=0;" parent="1" source="zUzUT3k_cKeQ_L0sz_wW-7" target="legLQhbJ98-BRNoT-hqe-26" edge="1">
          <mxGeometry width="160" relative="1" as="geometry">
            <mxPoint x="340" y="470" as="sourcePoint" />
            <mxPoint x="510" y="625" as="targetPoint" />
            <Array as="points">
              <mxPoint x="360" y="700" />
            </Array>
          </mxGeometry>
        </mxCell>
        <mxCell id="legLQhbJ98-BRNoT-hqe-32" value="&lt;div style=&quot;box-sizing: border-box ; width: 100% ; background: #e4e4e4 ; padding: 2px&quot;&gt;STORE_QNA&lt;/div&gt;&lt;table style=&quot;width: 100% ; font-size: 1em&quot; cellpadding=&quot;2&quot; cellspacing=&quot;0&quot;&gt;&lt;tbody&gt;&lt;tr&gt;&lt;td&gt;PK&lt;/td&gt;&lt;td&gt;store_qna_id&lt;/td&gt;&lt;/tr&gt;&lt;tr&gt;&lt;td&gt;FK1&lt;/td&gt;&lt;td&gt;user_id&lt;br&gt;store_answer_id&lt;/td&gt;&lt;/tr&gt;&lt;tr&gt;&lt;td&gt;&lt;/td&gt;&lt;td&gt;title&lt;br&gt;content&lt;br&gt;create_dt&lt;br&gt;update_dt&lt;/td&gt;&lt;/tr&gt;&lt;/tbody&gt;&lt;/table&gt;" style="verticalAlign=top;align=left;overflow=fill;html=1;" parent="1" vertex="1">
          <mxGeometry x="20" y="490" width="180" height="140" as="geometry" />
        </mxCell>
        <mxCell id="legLQhbJ98-BRNoT-hqe-33" value="" style="endArrow=ERoneToMany;endFill=0;endSize=12;html=1;entryX=1.006;entryY=0.583;entryDx=0;entryDy=0;exitX=0.5;exitY=1;exitDx=0;exitDy=0;entryPerimeter=0;" parent="1" source="zUzUT3k_cKeQ_L0sz_wW-7" target="legLQhbJ98-BRNoT-hqe-32" edge="1">
          <mxGeometry width="160" relative="1" as="geometry">
            <mxPoint x="370" y="500" as="sourcePoint" />
            <mxPoint x="210" y="555" as="targetPoint" />
            <Array as="points">
              <mxPoint x="360" y="572" />
            </Array>
          </mxGeometry>
        </mxCell>
        <mxCell id="legLQhbJ98-BRNoT-hqe-35" value="&lt;div style=&quot;box-sizing: border-box ; width: 100% ; background: #e4e4e4 ; padding: 2px&quot;&gt;STORE_ANSWER&lt;/div&gt;&lt;table style=&quot;width: 100% ; font-size: 1em&quot; cellpadding=&quot;2&quot; cellspacing=&quot;0&quot;&gt;&lt;tbody&gt;&lt;tr&gt;&lt;td&gt;PK&lt;/td&gt;&lt;td&gt;store_answer_id&lt;/td&gt;&lt;/tr&gt;&lt;tr&gt;&lt;td&gt;FK1&lt;/td&gt;&lt;td&gt;user_id&lt;br&gt;store_qna_id&lt;/td&gt;&lt;/tr&gt;&lt;tr&gt;&lt;td&gt;&lt;/td&gt;&lt;td&gt;title&lt;br&gt;content&lt;br&gt;create_dt&lt;br&gt;update_dt&lt;/td&gt;&lt;/tr&gt;&lt;/tbody&gt;&lt;/table&gt;" style="verticalAlign=top;align=left;overflow=fill;html=1;" parent="1" vertex="1">
          <mxGeometry x="20" y="660" width="180" height="130" as="geometry" />
        </mxCell>
        <mxCell id="legLQhbJ98-BRNoT-hqe-36" value="" style="endArrow=ERoneToMany;endFill=0;endSize=12;html=1;entryX=1;entryY=0.5;entryDx=0;entryDy=0;exitX=0.5;exitY=1;exitDx=0;exitDy=0;" parent="1" source="zUzUT3k_cKeQ_L0sz_wW-7" target="legLQhbJ98-BRNoT-hqe-35" edge="1">
          <mxGeometry width="160" relative="1" as="geometry">
            <mxPoint x="378.92" y="490" as="sourcePoint" />
            <mxPoint x="219.99999999999991" y="689.96" as="targetPoint" />
            <Array as="points">
              <mxPoint x="360" y="725" />
            </Array>
          </mxGeometry>
        </mxCell>
        <mxCell id="legLQhbJ98-BRNoT-hqe-37" value="" style="endArrow=ERoneToMany;endFill=0;endSize=12;html=1;exitX=0.5;exitY=0;exitDx=0;exitDy=0;entryX=0.5;entryY=1;entryDx=0;entryDy=0;startSize=12;startArrow=ERoneToMany;startFill=0;" parent="1" source="legLQhbJ98-BRNoT-hqe-26" target="legLQhbJ98-BRNoT-hqe-25" edge="1">
          <mxGeometry width="160" relative="1" as="geometry">
            <mxPoint x="670" y="610" as="sourcePoint" />
            <mxPoint x="600" y="612.1875" as="targetPoint" />
          </mxGeometry>
        </mxCell>
        <mxCell id="legLQhbJ98-BRNoT-hqe-39" value="" style="endArrow=ERoneToMany;endFill=0;endSize=12;html=1;exitX=0.5;exitY=0;exitDx=0;exitDy=0;entryX=0.5;entryY=1;entryDx=0;entryDy=0;startSize=12;startArrow=ERoneToMany;startFill=0;" parent="1" source="legLQhbJ98-BRNoT-hqe-35" target="legLQhbJ98-BRNoT-hqe-32" edge="1">
          <mxGeometry width="160" relative="1" as="geometry">
            <mxPoint x="280" y="650" as="sourcePoint" />
            <mxPoint x="210" y="652.1875" as="targetPoint" />
          </mxGeometry>
        </mxCell>
        <mxCell id="legLQhbJ98-BRNoT-hqe-41" value="&lt;div style=&quot;box-sizing: border-box ; width: 100% ; background: #e4e4e4 ; padding: 2px&quot;&gt;Category&lt;/div&gt;&lt;table style=&quot;width: 100% ; font-size: 1em&quot; cellpadding=&quot;2&quot; cellspacing=&quot;0&quot;&gt;&lt;tbody&gt;&lt;tr&gt;&lt;td&gt;PK&lt;/td&gt;&lt;td&gt;category_id&lt;/td&gt;&lt;/tr&gt;&lt;tr&gt;&lt;td&gt;FK1&lt;/td&gt;&lt;td&gt;product_id&lt;/td&gt;&lt;/tr&gt;&lt;tr&gt;&lt;td&gt;&lt;/td&gt;&lt;td&gt;name&lt;/td&gt;&lt;/tr&gt;&lt;/tbody&gt;&lt;/table&gt;" style="verticalAlign=top;align=left;overflow=fill;html=1;" parent="1" vertex="1">
          <mxGeometry x="960" y="380" width="180" height="90" as="geometry" />
        </mxCell>
        <mxCell id="legLQhbJ98-BRNoT-hqe-42" value="" style="endArrow=ERoneToMany;endFill=0;endSize=12;html=1;exitX=0.5;exitY=0;exitDx=0;exitDy=0;entryX=1;entryY=0.5;entryDx=0;entryDy=0;" parent="1" source="legLQhbJ98-BRNoT-hqe-41" target="legLQhbJ98-BRNoT-hqe-8" edge="1">
          <mxGeometry width="160" relative="1" as="geometry">
            <mxPoint x="1085" y="340" as="sourcePoint" />
            <mxPoint x="1015" y="342.1875" as="targetPoint" />
            <Array as="points">
              <mxPoint x="1050" y="250" />
            </Array>
          </mxGeometry>
        </mxCell>
      </root>
    </mxGraphModel>
  </diagram>
</mxfile>
